# Blender v2.82 (sub 7) OBJ File: ''
# www.blender.org
mtllib Player.mtl
o Player_Cube.001
v -3.820164 -0.240200 0.185901
v -2.653428 -0.240200 -1.000000
v -3.731351 -0.240200 -0.267924
v -3.478435 -0.240200 -0.652658
v -3.099918 -0.240200 -0.909729
v 2.653428 -0.240200 -1.000000
v 3.820164 -0.240200 0.185901
v 3.099918 -0.240200 -0.909729
v 3.478435 -0.240200 -0.652658
v 3.731351 -0.240200 -0.267924
v -3.658658 -0.209428 1.437066
v -3.820164 -0.240200 1.309918
v 3.658658 -0.209428 1.437066
v 3.820164 -0.240200 1.309918
v -2.637265 1.759800 -0.474498
v -2.653428 1.599762 -0.665130
v -3.658658 1.759800 0.565553
v -3.820164 1.599256 0.520679
v -3.036061 1.759800 -0.393869
v -3.099918 1.599674 -0.574875
v -3.361123 1.759800 -0.173102
v -3.478435 1.599524 -0.317831
v -3.578950 1.759800 0.158255
v -3.731351 1.599365 0.066874
v 3.658658 1.759800 0.565553
v 3.820164 1.599256 0.520679
v 2.637265 1.759800 -0.474498
v 2.653428 1.599762 -0.665130
v 3.578950 1.759800 0.158255
v 3.731351 1.599365 0.066874
v 3.361123 1.759800 -0.173102
v 3.478435 1.599524 -0.317831
v 3.036061 1.759800 -0.393869
v 3.099918 1.599674 -0.574875
v -3.820164 1.456029 0.907566
v -1.310437 0.469902 1.605655
v -3.820164 1.599219 0.726444
v -3.658658 1.759800 0.783744
v 3.820164 1.599219 0.726444
v 3.658658 1.759800 0.783744
v 3.820164 1.456029 0.907566
v 1.310437 0.469902 1.605655
v -3.658658 1.549381 1.049905
v 1.107455 -0.187409 2.246392
v -1.107455 -0.187409 2.246392
v 3.658658 1.549381 1.049905
v 0.691995 -0.196119 2.920305
v -0.691995 -0.196119 2.920305
v -1.136871 0.466264 2.029152
v 1.136871 0.466264 2.029152
vt 0.345772 0.718373
vt 0.297380 0.710547
vt 0.258011 0.689162
vt 0.231781 0.657250
vt 0.222202 0.618098
vt 0.222202 0.100275
vt 0.231781 0.061123
vt 0.258011 0.029210
vt 0.297380 0.007825
vt 0.345772 0.000000
vt 0.371695 0.000000
vt 0.371695 0.718373
vt 0.890092 0.224382
vt 0.890092 0.407986
vt 0.837043 0.406399
vt 0.837043 0.222804
vt 0.648507 0.701133
vt 0.648507 0.518011
vt 0.700448 0.525104
vt 0.700448 0.708215
vt 0.515589 0.698343
vt 0.554050 0.518011
vt 0.578382 0.518015
vt 0.599888 0.532053
vt 0.648507 0.698343
vt 0.222202 0.520997
vt 0.000000 0.520997
vt 0.000000 0.000000
vt 0.222202 0.000000
vt 0.977279 0.227595
vt 0.977279 0.410732
vt 0.935065 0.405925
vt 0.935065 0.222804
vt 0.184859 0.520997
vt 0.184859 0.704108
vt 0.132917 0.711201
vt 0.132917 0.528079
vt 0.906055 0.183596
vt 0.906055 0.000000
vt 0.951028 0.004519
vt 0.951028 0.188100
vt 0.853007 0.185182
vt 0.853007 0.001587
vt 0.906055 0.000000
vt 0.906055 0.183604
vt 0.890092 0.410903
vt 0.890092 0.227323
vt 0.935065 0.222804
vt 0.935065 0.406399
vt 0.738976 0.000973
vt 0.738976 0.717996
vt 0.703544 0.717023
vt 0.703544 0.000000
vt 0.916064 0.666932
vt 0.916064 0.483810
vt 0.958279 0.479003
vt 0.958279 0.662141
vt 0.000000 0.701329
vt 0.048618 0.535038
vt 0.070124 0.521001
vt 0.094456 0.520997
vt 0.132917 0.701329
vt 0.842983 0.736306
vt 0.842983 0.479003
vt 0.893301 0.496043
vt 0.893301 0.719266
vt 0.859546 0.450069
vt 0.859548 0.410126
vt 0.882049 0.407986
vt 0.882049 0.452707
vt 0.537578 0.741679
vt 0.537580 0.703102
vt 0.559566 0.698343
vt 0.559566 0.743262
vt 0.559566 0.742763
vt 0.559567 0.703833
vt 0.580616 0.698343
vt 0.580616 0.743542
vt 0.621505 0.744952
vt 0.621506 0.704207
vt 0.641345 0.698343
vt 0.641345 0.743740
vt 0.601666 0.739087
vt 0.601665 0.698343
vt 0.621505 0.699555
vt 0.621505 0.744952
vt 0.580617 0.738053
vt 0.580616 0.699123
vt 0.601665 0.698343
vt 0.601665 0.743542
vt 0.515592 0.738503
vt 0.515589 0.699927
vt 0.537578 0.698343
vt 0.537578 0.743262
vt 0.837045 0.450567
vt 0.837043 0.410623
vt 0.859546 0.407986
vt 0.859546 0.452707
vt 0.893301 0.998413
vt 0.893301 0.480590
vt 0.916064 0.479003
vt 0.916064 1.000000
vt 0.874049 0.191069
vt 0.874049 0.213715
vt 0.853007 0.218461
vt 0.853007 0.185182
vt 0.205901 0.703173
vt 0.205901 0.725819
vt 0.184859 0.731706
vt 0.184859 0.698427
vt 0.978610 0.479003
vt 0.978610 0.652703
vt 0.958279 0.649584
vt 0.958489 0.480947
vt 0.020074 0.728485
vt 0.020078 0.707166
vt 0.040148 0.701329
vt 0.040148 0.721435
vt 0.188201 0.698427
vt 0.184859 0.527375
vt 0.205690 0.520997
vt 0.205690 0.697717
vt 0.020074 0.708380
vt 0.020074 0.728485
vt 0.000005 0.722649
vt 0.000000 0.701329
vt 0.738976 0.040235
vt 0.853007 0.000000
vt 0.853007 0.222804
vt 0.738976 0.175852
vt 0.837043 0.479003
vt 0.738976 0.447655
vt 0.837043 0.222804
vt 0.701118 0.518011
vt 0.515589 0.341137
vt 0.701118 0.259464
vt 0.515589 0.230618
vt 0.515589 0.487437
vt 0.371695 0.717023
vt 0.371695 0.000000
vt 0.970071 0.146213
vt 0.951028 0.056895
vt 1.000000 0.000000
vt 1.000000 0.110991
vt 0.916064 0.756250
vt 0.935107 0.666932
vt 0.965037 0.702153
vt 0.965037 0.813145
vt 0.842983 0.479003
vt 0.842983 0.713067
vt 0.738976 0.710791
vt 0.515589 0.181671
vt 0.703544 0.000000
vt 0.703544 0.259464
vn 0.0000 1.0000 0.0000
vn -0.0991 0.1782 -0.9790
vn -0.0969 0.1782 -0.9792
vn -0.3745 0.1660 -0.9122
vn -0.3904 0.1648 -0.9057
vn -0.9315 0.0651 -0.3578
vn -0.9157 0.0720 -0.3954
vn -0.9940 0.0195 -0.1074
vn -0.9962 0.0156 -0.0855
vn 0.9940 0.0195 -0.1074
vn 0.9962 0.0156 -0.0855
vn 1.0000 0.0000 0.0000
vn 0.0991 0.1782 -0.9790
vn 0.0969 0.1782 -0.9792
vn -0.7181 0.1246 -0.6847
vn -0.6956 0.1286 -0.7068
vn 0.9157 0.0720 -0.3954
vn 0.9315 0.0651 -0.3578
vn 0.3904 0.1648 -0.9057
vn 0.3745 0.1660 -0.9122
vn 0.7181 0.1246 -0.6847
vn 0.6956 0.1286 -0.7068
vn 0.0000 0.7845 0.6202
vn -1.0000 0.0000 0.0000
vn 0.0000 1.0000 0.0086
vn -0.2526 0.7672 -0.5896
vn -0.0644 0.7669 -0.6385
vn -0.0635 0.7670 -0.6386
vn -0.2457 0.7674 -0.5922
vn -0.4724 0.7556 -0.4539
vn -0.4619 0.7564 -0.4632
vn -0.6294 0.7374 -0.2450
vn -0.6207 0.7389 -0.2620
vn -0.6950 0.7164 -0.0615
vn -0.6930 0.7174 -0.0722
vn 0.6294 0.7374 -0.2450
vn 0.6950 0.7164 -0.0615
vn 0.6930 0.7174 -0.0722
vn 0.6207 0.7390 -0.2620
vn 0.4724 0.7556 -0.4539
vn 0.4619 0.7564 -0.4632
vn 0.2526 0.7672 -0.5896
vn 0.2457 0.7674 -0.5922
vn 0.0644 0.7669 -0.6385
vn 0.0635 0.7670 -0.6386
vn 0.7071 0.5547 0.4385
vn -0.7071 0.5547 0.4385
vn -0.6685 0.1657 0.7250
vn -0.7050 0.7092 0.0001
vn 0.6685 0.1657 0.7250
vn 0.7050 0.7092 0.0001
vn 0.0000 0.8026 0.5965
vn -0.2375 0.6395 0.7312
vn 0.0281 0.4086 0.9123
vn 0.1312 0.2131 0.9682
vn 0.0926 0.2892 0.9528
vn -0.0281 0.4086 0.9123
vn -0.0926 0.2892 0.9528
vn -0.8745 0.1171 0.4707
vn 0.8745 0.1171 0.4707
vn 0.2375 0.6395 0.7312
vn -0.1312 0.2131 0.9682
usemtl (null)
s 1
f 25/1/1 29/2/1 31/3/1 33/4/1 27/5/1 15/6/1 19/7/1 21/8/1 23/9/1 17/10/1 38/11/1 40/12/1
f 16/13/2 2/14/3 5/15/4 20/16/5
f 24/17/6 3/18/7 1/19/8 18/20/9
f 7/21/10 26/22/11 39/23/12 41/24/12 14/25/12
f 2/26/3 16/27/2 28/28/13 6/29/14
f 22/30/15 4/31/16 3/32/7 24/33/6
f 26/34/11 7/35/10 10/36/17 30/37/18
f 20/38/5 5/39/4 4/40/16 22/41/15
f 34/42/19 8/43/20 6/44/14 28/45/13
f 32/46/21 9/47/22 8/48/20 34/49/19
f 40/50/23 38/51/23 43/52/23 46/53/23
f 30/54/18 10/55/17 9/56/22 32/57/21
f 12/58/24 35/59/24 37/60/24 18/61/9 1/62/8
f 42/63/25 36/64/25 49/65/25 50/66/25
f 19/67/26 15/68/27 16/69/28 20/70/29
f 21/71/30 19/72/26 20/73/29 22/74/31
f 23/75/32 21/76/30 22/77/31 24/78/33
f 17/79/34 23/80/32 24/81/33 18/82/35
f 29/83/36 25/84/37 26/85/38 30/86/39
f 31/87/40 29/88/36 30/89/39 32/90/41
f 33/91/42 31/92/40 32/93/41 34/94/43
f 27/95/44 33/96/42 34/97/43 28/98/45
f 15/99/27 27/100/44 28/101/45 16/102/28
f 41/103/46 39/104/46 40/105/46 46/106/46
f 37/107/47 35/108/47 43/109/47 38/110/47
f 11/111/48 43/112/48 35/113/48 12/114/48
f 38/115/49 17/116/34 18/117/35 37/118/49
f 14/119/50 41/120/50 46/121/50 13/122/50
f 39/123/51 26/124/38 25/125/37 40/126/51
f 47/127/52 50/128/52 49/129/52 48/130/52
f 45/131/53 36/132/53 11/133/53
f 42/134/54 13/135/55 46/136/56
f 36/137/57 42/138/54 46/139/56 43/140/58
f 36/141/59 45/142/59 48/143/59 49/144/59
f 44/145/60 42/146/60 50/147/60 47/148/60
f 13/149/61 42/150/61 44/151/61
f 11/152/62 36/153/57 43/154/58
